<svg width="1454" height="647" xmlns="http://www.w3.org/2000/svg" xmlns:xlink="http://www.w3.org/1999/xlink" xmlns:sketch="http://www.bohemiancoding.com/sketch/ns"><title>Artboard 1</title><defs><path id="a" d="M0 .252h6544v1176.748h-6544v-1176.748z"/></defs><g sketch:type="MSLayerGroup" transform="translate(-377 -265)" fill="none"><path d="M473.293 562.984l613.071-253.943 613.104 253.943-613.083 253.963-613.092-253.963zm614.145 259.486l620.277-256.943c1.028-.427 1.699-1.431 1.699-2.544s-.671-2.117-1.7-2.543l-620.297-256.921c-.675-.28-1.433-.279-2.107 0l-620.264 256.921c-1.028.427-1.699 1.43-1.699 2.544 0 1.113.671 2.117 1.699 2.543l620.285 256.943c.337.14.695.21 1.054.21.358 0 .716-.07 1.053-.21z" fill="#ffffff" sketch:type="MSShapeGroup"/><path d="M1339.884 604.967h4.49c3.143 0 4.58-1.482 4.58-4.576v-32.156h9.272l22.189 34.685c.942 1.412 1.908 2.047 3.824 2.047h6.696c3.215 0 4.562-2.791 2.931-5.281-1.043-1.598-24.64-37.649-24.64-37.649s19.99-33.68 21.281-35.853c1.461-2.463.191-5.184-2.977-5.184h-6.199c-2.125 0-3.146.735-4.047 2.445l-19.254 33.108h-9.076v-30.979c0-3.084-1.424-4.574-4.58-4.574h-4.49c-3.278 0-4.574 1.621-4.574 4.574v74.817c0 3.054 1.392 4.576 4.574 4.576" fill="#ffffff" sketch:type="MSShapeGroup"/><path d="M1307.438 541.648v9.981c0 4.875-2.195 7.867-7.867 7.867h-17.442l-.011-25.81h16.664c7.549 0 8.656 3.919 8.656 7.962zm-25.324-20.648h-9.052000000000001c-3.245 0-4.575 1.592-4.575 4.574v74.817c0 2.867 1.221 4.576 4.575 4.576h4.495c3.095 0 4.572-1.434 4.576-4.569v-28.414h18.06c14.398 0 20.865-9.105 20.865-20.355v-9.981c0-10.98-6.303-20.648-21.651-20.648h-17.293z" fill="#ffffff" sketch:type="MSShapeGroup"/><path d="M1093.2 583.664c0 5.701-3.779 8.619-9.433 8.619h-8.294c-5.653 0-9.43-2.918-9.43-8.619v-41.361c0-5.701 3.777-8.619 9.43-8.619h8.294c5.654 0 9.433 2.918 9.433 8.619v41.361zm-7.282-62.662h-12.596c-13.47 0-20.896 7.857-20.896 20.783v42.399c0 12.923 7.426 20.781 20.896 20.781h12.596c13.47 0 20.898-7.858 20.898-20.781v-42.399c0-12.926-7.428-20.783-20.898-20.783z" fill="#ffffff" sketch:type="MSShapeGroup"/><path d="M1221.773 541.869h1.952l9.825 34.952h-21.605l9.828-34.952zm-26.735 63.098h5.526c2.381-.004 3.735-1.087 4.385-3.274l.011-.006 3.662-12.996h28.253l3.663 12.996.01.006c.651 2.187 2.003 3.27 4.384 3.274h5.527c2.611 0 4.178-1.551 3.326-4.421-.432-1.451-22.681-76.302-22.681-76.302l-.005-.005c-.648-2.134-1.654-3.239-4.377-3.239h-7.947c-2.725 0-3.729 1.105-4.377 3.239l-.006.005s-22.248 74.851-22.68 76.302c-.853 2.87.715 4.421 3.326 4.421z" fill="#ffffff" sketch:type="MSShapeGroup"/><path d="M1129.068 521h-.001c-3.162 0-4.574 1.508-4.574 4.573v74.818c0 2.904 1.249 4.576 4.574 4.576h4.496c3.045 0 4.572-1.377 4.574-4.575l.004-.001v-66.707h26.645v66.707c0 2.996 1.338 4.576 4.576 4.576h4.495c3.051 0 4.577-1.394 4.577-4.576v-74.818c0-3.108-1.455-4.573-4.577-4.573h-44.789z" fill="#ffffff" sketch:type="MSShapeGroup"/><path d="M890.75 521h-37.507c-3.215 0-4.571 1.559-4.574 4.572v74.82c.003 3.084 1.422 4.575 4.574 4.575h37.507c3.032 0 4.572-1.373 4.575-4.575v-3.538c-.003-3.079-1.433-4.559-4.575-4.559l-28.451-.002v-24.303h23.818c3.25-.004 4.57-1.594 4.57-4.578v-3.402c0-3.114-1.446-4.571-4.567-4.576l-23.821-.007v-21.743h28.451c3.034 0 4.575-1.376 4.575-4.577v-3.534c0-3.149-1.493-4.573-4.575-4.573" fill="#ffffff" sketch:type="MSShapeGroup"/><path d="M830.337 521h-47.562c-3.215 0-4.576 1.56-4.576 4.573v3.534c0 3.102 1.447 4.577 4.576 4.577h16.972v66.707c0 3.196 1.535 4.576 4.572 4.576h4.471c3.141 0 4.576-1.469 4.576-4.576v-66.707h16.971c3.17 0 4.575-1.5 4.575-4.577v-3.534c0-3.108-1.452-4.573-4.575-4.573" fill="#ffffff" sketch:type="MSShapeGroup"/><path d="M1034.715 600.398v-74.818c0-3.201-1.537-4.58-4.574-4.58h-4.494c-3.108 0-4.577 1.459-4.577 4.58l.004.082v29.762h-26.668v-29.762l.004-.082c0-3.111-1.447-4.58-4.575-4.58h-4.503c-3.14 0-4.574 1.475-4.574 4.58v74.818c0 3.139 1.477 4.569 4.574 4.569h4.503c3.034 0 4.571-1.373 4.571-4.569v-32.408h26.668v32.408c0 3.008 1.373 4.569 4.573 4.569h4.494c3.143 0 4.574-1.5 4.574-4.569" fill="#ffffff" sketch:type="MSShapeGroup"/><path d="M917.753 604.967c1.791 0 3.336-1.045 4.086-2.543l15.765-29.653 15.819 29.764c.77 1.437 2.288 2.432 4.034 2.432h6.405c3.69 0 4.22-3.112 3.086-5.121-.068-.123-21.738-38.573-21.738-38.573l19.748-35.045c1.515-2.689-.078-5.222-3.029-5.222h-6.441c-1.765 0-3.294 1.002-4.055 2.465l-13.829 25.638-13.824-25.621-.007-.006c-.759-1.47-2.291-2.482-4.061-2.482h-6.441c-2.997 0-4.539 2.566-3.061 5.188.226.402 19.784 35.085 19.784 35.085l-21.7 38.514c-1.236 2.246-.496 5.18 3.053 5.18h6.406z" fill="#ffffff" sketch:type="MSShapeGroup"/><path d="M868.745 464.701c.54.38 1.43.57 2.67.57.519 0 .97-.01 1.35-.03.379-.02.729-.09 1.05-.21.32-.12.619-.31.9-.57.279-.26.58-.609.9-1.05l9.84-14.16v12.42c0 1.28.262 2.2.786 2.76.525.56 1.473.84 2.844.84 1.412 0 2.359-.33 2.844-.99.483-.66.726-1.53.726-2.61v-22.14c0-1.16-.273-1.91-.817-2.25-.545-.339-1.322-.51-2.329-.51-.928 0-1.696.12-2.3.36-.606.24-1.17.76-1.694 1.56l-10.38 15.42v-13.5c0-1.399-.25-2.4-.75-3-.5-.6-1.451-.9-2.85-.9-1.32 0-2.25.321-2.79.959-.54.641-.81 1.621-.81 2.941v21.9c0 1.08.27 1.81.81 2.19" fill="#ffffff" sketch:type="MSShapeGroup"/><path d="M909.288 455.85c.498.521 1.265.781 2.301.781h1.493c1.035 0 1.802-.24 2.3-.72.498-.48.906-.98 1.225-1.5l2.808-4.98v12.419c.039 2.281 1.239 3.42 3.6 3.42 1.2 0 2.1-.259 2.7-.779.599-.52.9-1.4.9-2.641v-21.419c0-2.32-1.2-3.48-3.6-3.48h-1.621c-1.4 0-2.46.599-3.179 1.799l-5.88 9.661-5.941-9.78c-.32-.48-.66-.88-1.019-1.2-.36-.321-1.061-.48-2.101-.48h-1.619c-2.361 0-3.54 1.16-3.54 3.48v21.419c0 1.241.292 2.121.877 2.641s1.483.779 2.692.779c1.25 0 2.168-.259 2.753-.779s.877-1.4.877-2.641v-12.54l2.809 5.04c.278.48.666.981 1.165 1.5" fill="#ffffff" sketch:type="MSShapeGroup"/><path d="M935.379 465.031c1.2 0 2.18-.409 2.94-1.23.759-.819 1.14-1.749 1.14-2.79 0-1.359-.431-2.37-1.29-3.03-.86-.66-1.811-.99-2.85-.99-1.041 0-1.991.33-2.85.99-.861.66-1.29 1.671-1.29 3.03 0 1.08.399 2.02 1.2 2.82.8.801 1.8 1.2 3 1.2" fill="#ffffff" sketch:type="MSShapeGroup"/><path d="M967.688 465.331c1.209 0 2.107-.26 2.692-.78.585-.519.878-1.359.878-2.52v-14.7h14.58v14.7c0 1.161.292 2.001.877 2.52.585.52 1.483.78 2.693.78 1.25 0 2.168-.26 2.753-.78.585-.519.877-1.359.877-2.52v-34.08c0-2.199-1.21-3.3-3.63-3.3-2.38 0-3.57 1.096-3.57 3.288v12.432h-14.58v-12.432c0-2.192-1.19-3.288-3.57-3.288-2.421 0-3.63 1.101-3.63 3.3v34.08c0 1.161.292 2.001.878 2.52.585.52 1.501.78 2.752.78" fill="#ffffff" sketch:type="MSShapeGroup"/><path d="M1002.05 465.031c1.199 0 2.18-.409 2.939-1.23.76-.819 1.14-1.749 1.14-2.79 0-1.359-.43-2.37-1.29-3.03-.86-.66-1.81-.99-2.85-.99-1.041 0-1.99.33-2.849.99-.861.66-1.29 1.671-1.29 3.03 0 1.08.399 2.02 1.2 2.82.799.801 1.8 1.2 3 1.2" fill="#ffffff" sketch:type="MSShapeGroup"/><path d="M1038.918 456.661c-.82.9-1.971 1.35-3.45 1.35l-12.3.06c-1.08 0-1.89.31-2.43.93-.54.621-.81 1.47-.81 2.55 0 1.08.27 1.93.81 2.55.54.62 1.35.93 2.43.93h12.6c1.56 0 3.043-.25 4.449-.75 1.406-.5 2.643-1.25 3.712-2.25 1.069-1 1.906-2.27 2.511-3.81.605-1.54.908-3.369.908-5.49v-15.24c0-4.16-.848-7.29-2.541-9.39-1.695-2.1-4.608-3.15-8.739-3.15h-12.36c-1.12 0-1.94.31-2.46.93-.52.621-.78 1.47-.78 2.55 0 1.08.26 1.93.78 2.55.52.62 1.34.93 2.46.93h11.76c1.76 0 2.979.48 3.66 1.44.68.96 1.019 2.24 1.019 3.84v3.06h-12.179c-2.321 0-3.48 1.18-3.48 3.54 0 1.401.289 2.35.869 2.85.581.501 1.451.75 2.611.75h12.179v5.459c0 1.641-.41 2.911-1.229 3.811" fill="#ffffff" sketch:type="MSShapeGroup"/><path d="M1055.514 465.031c1.199 0 2.18-.409 2.939-1.23.76-.819 1.14-1.749 1.14-2.79 0-1.359-.43-2.37-1.29-3.03-.86-.66-1.81-.99-2.85-.99-1.041 0-1.99.33-2.849.99-.861.66-1.29 1.671-1.29 3.03 0 1.08.399 2.02 1.2 2.82.799.801 1.8 1.2 3 1.2" fill="#ffffff" sketch:type="MSShapeGroup"/><path d="M1091.692 447.391h10.579c1.753 0 2.998.531 3.735 1.59.737 1.06 1.107 2.331 1.107 3.81 0 1.041-.15 1.89-.448 2.55-.3.66-.688 1.2-1.166 1.62-.478.42-1.016.71-1.615.87-.597.16-1.175.24-1.732.24h-10.46v-10.68zm-7.199 14.16c0 2.32 1.201 3.48 3.607 3.48h13.647c1.924 0 3.657-.28 5.201-.842 1.543-.56 2.864-1.372 3.967-2.435 1.102-1.064 1.944-2.356 2.526-3.881.581-1.523.871-3.228.871-5.112 0-3.809-.98-6.817-2.939-9.022-1.961-2.204-5.101-3.308-9.42-3.308h-10.261v-8.52h15.24c1.08 0 1.891-.31 2.431-.93.539-.62.809-1.47.809-2.55 0-1.08-.27-1.929-.809-2.55-.54-.62-1.351-.93-2.431-.93h-18.78c-2.439 0-3.659 1.14-3.659 3.42v33.18z" fill="#ffffff" sketch:type="MSShapeGroup"/><path d="M1138.792 458.071h-10.5c-.681 0-1.19-.227-1.529-.68-.341-.454-.511-.957-.511-1.51v-.178c0-.513.181-.986.54-1.42.36-.435.86-.652 1.5-.652h10.5v4.44zm-14.22-15.09c.64.46 1.3.69 1.981.69h8.219c1.48 0 2.51.351 3.09 1.05.579.7.87 1.45.87 2.25v.48h-11.219c-1.361 0-2.561.23-3.601.69-1.04.461-1.92 1.06-2.64 1.8-.719.74-1.27 1.6-1.65 2.58-.38.981-.569 2.01-.569 3.09v.54c0 1.36.21 2.58.63 3.66.42 1.08.999 2.01 1.739 2.79.74.78 1.599 1.38 2.58 1.8.98.42 2.011.63 3.091.63h15.42c.638 0 1.178-.139 1.62-.42.439-.279.799-.609 1.079-.99.28-.38.48-.78.601-1.2.12-.42.179-.77.179-1.05v-13.62c0-3.48-.91-6.129-2.729-7.95-1.822-1.82-4.531-2.73-8.13-2.73h-8.58c-.681 0-1.341.291-1.981.87-.64.58-.96 1.451-.96 2.61 0 1.161.32 1.971.96 2.43z" fill="#ffffff" sketch:type="MSShapeGroup"/><path d="M1158.166 453.931v-14.34c0-.68-.318-1.32-.953-1.92-.635-.6-1.527-.9-2.677-.9-1.23 0-2.133.3-2.708.9-.575.6-.862 1.24-.862 1.92v14.34c0 3.72 1.029 6.5 3.09 8.34 2.059 1.84 4.91 2.76 8.549 2.76h7.441v.78c0 1.4-.381 2.51-1.141 3.33-.76.819-1.94 1.23-3.54 1.23h-8.819c-.681 0-1.33.259-1.95.78-.621.519-.93 1.36-.93 2.52 0 1.119.309 1.98.93 2.58.62.599 1.269.9 1.95.9h8.88c1.599 0 3.116-.21 4.551-.63 1.434-.42 2.686-1.08 3.757-1.98 1.072-.9 1.924-2.04 2.559-3.42.635-1.38.953-3.05.953-5.01v-26.52c0-.68-.318-1.32-.953-1.92-.635-.6-1.527-.9-2.678-.9-1.19 0-2.083.3-2.677.9-.595.6-.892 1.24-.892 1.92v18.48h-7.056c-1.367 0-2.513-.3-3.438-.9-.924-.6-1.386-1.68-1.386-3.24" fill="#ffffff" sketch:type="MSShapeGroup"/><path d="M1186.298 465.271c1.25 0 2.168-.26 2.753-.78s.877-1.399.877-2.64v-12.54l2.808 5.04c.279.48.666.981 1.166 1.5.498.521 1.264.78 2.3.78h1.493c1.036 0 1.802-.24 2.3-.72.498-.48.907-.98 1.226-1.5l2.807-4.98v12.42c.04 2.28 1.24 3.42 3.6 3.42 1.2 0 2.101-.26 2.7-.78.6-.52.901-1.399.901-2.64v-21.42c0-2.319-1.201-3.48-3.601-3.48h-1.62c-1.4 0-2.46.6-3.18 1.8l-5.88 9.66-5.94-9.78c-.32-.48-.66-.879-1.02-1.2-.36-.32-1.06-.48-2.1-.48h-1.619c-2.362 0-3.54 1.161-3.54 3.48v21.42c0 1.241.292 2.12.877 2.64s1.482.78 2.692.78" fill="#ffffff" sketch:type="MSShapeGroup"/><path d="M1222.952 455.703c0-.513.18-.986.54-1.42.359-.435.859-.652 1.5-.652h10.5v4.44h-10.5c-.681 0-1.19-.227-1.53-.68-.34-.454-.51-.957-.51-1.51v-.178zm-4.83 6.898c.739.78 1.6 1.38 2.58 1.8.979.42 2.01.63 3.09.63h15.42c.639 0 1.179-.14 1.62-.42.439-.279.8-.609 1.08-.99.279-.38.479-.78.6-1.2.12-.42.18-.77.18-1.05v-13.62c0-3.48-.911-6.129-2.73-7.95-1.821-1.82-4.531-2.73-8.13-2.73h-8.58c-.681 0-1.341.291-1.98.87-.64.58-.96 1.45-.96 2.61 0 1.161.32 1.971.96 2.43.639.46 1.299.69 1.98.69h8.22c1.479 0 2.509.351 3.09 1.05.579.7.869 1.45.869 2.25v.48h-11.219c-1.361 0-2.561.23-3.6.69-1.041.46-1.92 1.06-2.64 1.8-.72.74-1.27 1.6-1.65 2.58-.381.981-.57 2.01-.57 3.09v.54c0 1.36.21 2.58.63 3.66.42 1.08 1 2.01 1.74 2.79z" fill="#ffffff" sketch:type="MSShapeGroup"/><path d="M1251.643 465.271c1.189 0 2.082-.26 2.678-.78.594-.52.892-1.399.892-2.64v-8.22h10.98v8.22c0 1.241.293 2.12.878 2.64s1.462.78 2.632.78c1.29 0 2.228-.26 2.813-.78s.877-1.399.877-2.64v-21.78c0-2.199-1.23-3.3-3.69-3.3-2.341 0-3.51 1.101-3.51 3.3v6.96h-10.98v-6.96c0-2.199-1.19-3.3-3.57-3.3-2.421 0-3.63 1.101-3.63 3.3v21.78c0 1.241.297 2.12.893 2.64.594.52 1.508.78 2.737.78" fill="#ffffff" sketch:type="MSShapeGroup"/><path d="M1285.086 455.703c0-.513.181-.986.54-1.42.36-.435.86-.652 1.5-.652h10.5v4.44h-10.5c-.681 0-1.19-.227-1.529-.68-.341-.454-.511-.957-.511-1.51v-.178zm-4.83 6.898c.74.78 1.6 1.38 2.58 1.8.98.42 2.011.63 3.091.63h15.42c.638 0 1.178-.14 1.62-.42.439-.279.799-.609 1.079-.99.28-.38.48-.78.601-1.2.12-.42.179-.77.179-1.05v-13.62c0-3.48-.91-6.129-2.729-7.95-1.822-1.82-4.531-2.73-8.13-2.73h-8.58c-.681 0-1.341.291-1.981.87-.64.58-.96 1.45-.96 2.61 0 1.161.32 1.971.96 2.43.64.46 1.3.69 1.981.69h8.22c1.479 0 2.509.351 3.089 1.05.579.7.87 1.45.87 2.25v.48h-11.219c-1.361 0-2.561.23-3.601.69-1.04.46-1.92 1.06-2.639 1.8-.72.74-1.271 1.6-1.651 2.58-.38.981-.569 2.01-.569 3.09v.54c0 1.36.21 2.58.63 3.66.42 1.08.999 2.01 1.739 2.79z" fill="#ffffff" sketch:type="MSShapeGroup"/><path d="M1017.165 409.342c1.209 0 2.107-.261 2.692-.78s.878-1.359.878-2.52v-23.04h.24l4.605 9.361c.279.52.678 1.079 1.196 1.679.518.6 1.316.9 2.393.9h1.973c1.116 0 1.923-.289 2.422-.87.498-.58.887-1.129 1.166-1.65l4.665-9.42h.24v23.04c0 1.161.293 2.001.878 2.52.585.519 1.482.78 2.692.78 1.25 0 2.168-.261 2.752-.78.585-.519.878-1.359.878-2.52v-33.6c0-2.319-1.203-3.48-3.607-3.48h-2.043c-1.563 0-2.665.62-3.306 1.86l-7.514 14.94h-.36l-7.033-13.92c-.201-.4-.4-.78-.601-1.14-.201-.36-.442-.669-.722-.93-.28-.259-.61-.46-.991-.6-.381-.139-.872-.21-1.472-.21h-2.044c-2.405 0-3.607 1.161-3.607 3.48v33.6c0 1.161.293 2.001.878 2.52.585.519 1.502.78 2.752.78" fill="#ffffff" sketch:type="MSShapeGroup"/><path d="M1061.559 409.342c1.16 0 2.04-.24 2.64-.72.6-.48.9-1.3.9-2.46v-30.24h16.32c1.08 0 1.89-.31 2.43-.93.54-.62.81-1.47.81-2.55 0-1.08-.27-1.929-.81-2.55-.54-.62-1.35-.93-2.43-.93h-19.86c-2.44 0-3.66 1.161-3.66 3.48v33.72c0 1.16.3 1.98.9 2.46.6.48 1.52.72 2.76.72" fill="#ffffff" sketch:type="MSShapeGroup"/><path d="M1095.789 375.922h8.46v30.06c0 2.241 1.189 3.36 3.57 3.36 2.42 0 3.63-1.119 3.63-3.36v-30.06h8.4c1.08 0 1.899-.31 2.46-.93.56-.62.84-1.47.84-2.55 0-1.08-.28-1.929-.84-2.55-.561-.62-1.38-.93-2.46-.93h-24.06c-1.08 0-1.89.31-2.43.93-.54.621-.81 1.47-.81 2.55 0 1.08.27 1.93.81 2.55.54.62 1.35.93 2.43.93" fill="#ffffff" sketch:type="MSShapeGroup"/><path d="M1143.566 397.462h8.46v.6c0 1.401-.37 2.4-1.11 3-.741.6-1.75.9-3.03.9h-11.58c-.28 0-.61.051-.99.15-.38.1-.73.27-1.05.51-.321.24-.6.58-.84 1.02-.24.44-.36 1.02-.36 1.74 0 1.32.34 2.26 1.02 2.82.68.561 1.419.84 2.22.84h11.46c3.647 0 6.468-.92 8.465-2.76 1.997-1.84 2.995-4.56 2.995-8.16v-25.62c0-1.4-.332-2.36-.998-2.88-.666-.52-1.524-.78-2.572-.78-.363 0-.757.02-1.18.06-.424.04-.817.18-1.18.42s-.665.61-.907 1.109c-.242.501-.363 1.211-.363 2.131v17.7h-8.601c-.875 0-1.592-.16-2.149-.48-.558-.32-1.006-.74-1.344-1.26-.339-.519-.578-1.1-.717-1.74-.139-.64-.209-1.3-.209-1.98v-12.3c0-1.52-.333-2.51-.998-2.969-.666-.46-1.524-.691-2.572-.691-.403 0-.816.02-1.24.06-.424.04-.817.18-1.179.42-.364.24-.657.61-.878 1.109-.222.501-.333 1.211-.333 2.131v12.3c0 4 .99 7.101 2.97 9.3 1.98 2.2 4.91 3.3 8.79 3.3" fill="#ffffff" sketch:type="MSShapeGroup"/><path d="M940.607 648.845h-2.044c-1.562 0-2.664.62-3.306 1.86l-7.513 14.94h-.361l-7.033-13.92c-.2-.4-.4-.78-.6-1.141-.202-.359-.443-.669-.723-.929-.28-.26-.61-.46-.99-.6-.381-.14-.872-.21-1.473-.21h-2.044c-2.405 0-3.606 1.16-3.606 3.479v33.601c0 1.16.292 2 .877 2.52.585.519 1.502.78 2.753.78 1.209 0 2.107-.261 2.692-.78.585-.52.877-1.36.877-2.52v-23.04h.24l4.606 9.36c.279.52.677 1.079 1.196 1.68.517.599 1.315.899 2.392.899h1.973c1.116 0 1.923-.289 2.422-.869.499-.58.887-1.13 1.166-1.651l4.665-9.419h.24v23.04c0 1.16.293 2 .878 2.52.585.519 1.482.78 2.693.78 1.249 0 2.167-.261 2.752-.78.584-.52.877-1.36.877-2.52v-33.601c0-2.319-1.203-3.479-3.606-3.479" fill="#ffffff" sketch:type="MSShapeGroup"/><path d="M968.573 681.964h-10.5c-.681 0-1.19-.228-1.529-.681-.341-.454-.511-.956-.511-1.51v-.177c0-.513.181-.986.54-1.421.36-.434.86-.652 1.5-.652h10.5v4.441zm-3.659-21h-8.58c-.681 0-1.341.29-1.981.869-.64.581-.96 1.452-.96 2.611 0 1.16.32 1.97.96 2.43.64.46 1.3.689 1.981.689h8.219c1.48 0 2.51.351 3.09 1.05.579.701.87 1.451.87 2.251v.48h-11.219c-1.361 0-2.561.231-3.601.69-1.04.461-1.92 1.06-2.64 1.799-.719.742-1.27 1.601-1.65 2.581-.38.981-.569 2.01-.569 3.09v.54c0 1.36.21 2.58.63 3.659.42 1.08.999 2.011 1.739 2.79.74.78 1.599 1.381 2.58 1.801.98.42 2.011.63 3.091.63h15.42c.638 0 1.178-.139 1.62-.42.439-.279.799-.609 1.079-.99.28-.38.48-.78.601-1.201.12-.419.179-.769.179-1.049v-13.62c0-3.48-.91-6.129-2.729-7.95-1.822-1.82-4.531-2.73-8.13-2.73z" fill="#ffffff" sketch:type="MSShapeGroup"/><path d="M989.279 660.964h-7.38c-.681 0-1.341.27-1.98.809-.64.54-.96 1.391-.96 2.551 0 1.08.32 1.911.96 2.489.639.581 1.299.871 1.98.871h3.72v18.72c0 .68.3 1.32.9 1.92.6.6 1.5.9 2.699.9 1.241 0 2.151-.3 2.731-.9.579-.6.87-1.24.87-1.92v-22.321c0-.798-.311-1.519-.93-2.159-.621-.639-1.491-.96-2.61-.96" fill="#ffffff" sketch:type="MSShapeGroup"/><path d="M991.918 649.804c-.88-.679-1.859-1.02-2.939-1.02-1.041 0-1.991.341-2.851 1.02-.86.681-1.29 1.68-1.29 3 0 1.16.41 2.121 1.23 2.88.82.76 1.81 1.14 2.97 1.14 1.2 0 2.199-.38 3-1.14.8-.759 1.2-1.72 1.2-2.88 0-1.32-.44-2.319-1.32-3" fill="#ffffff" sketch:type="MSShapeGroup"/><path d="M1011.256 682.204h-.84c-1.48 0-2.53-.408-3.15-1.228-.621-.818-.93-1.806-.93-2.964v-28.092c0-.679-.313-1.318-.938-1.916-.626-.6-1.523-.9-2.692-.9-1.251 0-2.159.3-2.723.901-.565.599-.847 1.24-.847 1.92v28.08c0 3.76.947 6.56 2.844 8.399 1.895 1.841 4.487 2.761 7.776 2.761h1.5c.84 0 1.579-.293 2.22-.878.639-.585.96-1.442.96-2.572 0-1.09-.27-1.947-.81-2.573-.54-.624-1.331-.938-2.37-.938" fill="#ffffff" sketch:type="MSShapeGroup"/><path d="M1024.42 681.875c-.86-.66-1.811-.99-2.85-.99-1.041 0-1.991.33-2.85.99-.861.659-1.29 1.67-1.29 3.03 0 1.08.399 2.02 1.2 2.82.8.8 1.8 1.2 3 1.2s2.18-.41 2.94-1.23c.759-.82 1.14-1.75 1.14-2.79 0-1.36-.431-2.371-1.29-3.03" fill="#ffffff" sketch:type="MSShapeGroup"/><path d="M1051.448 665.354c-.757 1.114-1.813 1.67-3.167 1.67h-10.338v-11.22h10.039c.438 0 .926.09 1.464.269.538.18 1.035.488 1.494.925.457.438.847 1.005 1.165 1.701.32.697.479 1.542.479 2.536 0 1.632-.379 3.005-1.136 4.119m4.848-13.15c-1.122-1.08-2.455-1.909-3.998-2.489-1.543-.58-3.277-.87-5.201-.87h-12.746c-2.406 0-3.607 1.16-3.607 3.479v33.42c0 2.32 1.209 3.48 3.63 3.48 2.379 0 3.569-1.16 3.569-3.48v-11.76h6.752l7.351 13.32c.318.6.778 1.071 1.378 1.411.599.338 1.239.509 1.92.509 1.04 0 1.879-.379 2.52-1.139.639-.76.96-1.561.96-2.401 0-.319-.03-.629-.091-.929-.059-.301-.189-.59-.389-.87l-5.941-10.561c1.411-.479 2.591-1.14 3.539-1.979.947-.84 1.704-1.8 2.269-2.88.564-1.08.967-2.241 1.21-3.481.242-1.239.363-2.479.363-3.72 0-1.879-.302-3.589-.902-5.129-.602-1.54-1.463-2.851-2.586-3.931" fill="#ffffff" sketch:type="MSShapeGroup"/><path d="M1088.795 687.574c.299-.379.508-.779.628-1.199.12-.421.18-.811.18-1.171v-21.72c0-.72-.318-1.369-.953-1.949-.634-.58-1.527-.871-2.677-.871-1.231 0-2.132.301-2.707.9-.576.6-.864 1.221-.864 1.861v18.54h-6.96c-1.36 0-2.51-.29-3.45-.87-.939-.58-1.409-1.63-1.409-3.151v-14.519c0-.721-.301-1.36-.9-1.92-.6-.56-1.5-.841-2.701-.841-1.24 0-2.15.301-2.729.9-.581.6-.87 1.221-.87 1.861v14.519c0 3.601 1.047 6.33 3.142 8.191 2.095 1.859 4.9 2.79 8.412 2.79h10.835c.757 0 1.377-.13 1.855-.391.479-.26.867-.579 1.168-.96" fill="#ffffff" sketch:type="MSShapeGroup"/><path d="M1143.092 664.927c-.66-.441-1.53-.662-2.61-.662h-8.58c-1.081 0-1.901.302-2.46.908-.561.606-.84 1.452-.84 2.542 0 1.089.279 1.947.84 2.572.559.625 1.379.938 2.46.938h4.98v10.74h-9.72c-1.841 0-3.201-.45-4.08-1.351-.881-.899-1.32-2.189-1.32-3.869v-15.661c0-1.679.43-2.979 1.29-3.899.859-.92 2.229-1.381 4.11-1.381h11.7c1.12 0 1.959-.309 2.52-.929.56-.62.84-1.47.84-2.551 0-1.079-.28-1.928-.84-2.55-.561-.619-1.4-.929-2.52-.929h-12.72c-1.481 0-2.91.26-4.29.78s-2.61 1.29-3.69 2.31-1.95 2.31-2.61 3.869c-.66 1.56-.99 3.382-.99 5.461v15.24c0 2.04.309 3.83.93 5.37.62 1.54 1.45 2.84 2.49 3.899 1.04 1.061 2.269 1.851 3.69 2.371 1.419.52 2.91.78 4.47.78h14.46c1.2 0 2.079-.311 2.64-.932.56-.622.84-1.474.84-2.556v-17.744c0-1.403-.33-2.326-.99-2.766" fill="#ffffff" sketch:type="MSShapeGroup"/><path d="M1167.848 663.244c-.881-.68-1.9-1.23-3.061-1.65-1.16-.42-2.36-.63-3.599-.63h-7.92c-.761 0-1.381.13-1.86.39-.481.261-.871.58-1.17.96-.3.381-.51.78-.63 1.2-.12.42-.181.81-.181 1.17v21.78c0 .72.31 1.361.931 1.92.619.56 1.509.84 2.67.84 1.239 0 2.149-.3 2.729-.9.58-.6.87-1.22.87-1.86v-18.66h3.66c.8 0 1.54.2 2.22.6.68.4 1.18.801 1.5 1.2.601.88 1.34 1.461 2.221 1.74.879.281 1.8.1 2.76-.54.439-.32.839-.72 1.2-1.2.359-.48.54-1.02.54-1.62 0-.8-.261-1.62-.78-2.46-.521-.84-1.221-1.599-2.1-2.28" fill="#ffffff" sketch:type="MSShapeGroup"/><path d="M1180.843 671.944c0-1.4.34-2.499 1.021-3.3.679-.8 1.838-1.2 3.479-1.2h2.88c1.64 0 2.8.4 3.48 1.2.68.801 1.02 1.9 1.02 3.3v6.24c0 1.28-.33 2.31-.989 3.09-.661.78-1.811 1.17-3.451 1.17h-3c-1.64 0-2.79-.39-3.45-1.17-.66-.78-.99-1.81-.99-3.09v-6.24zm-6.359-4.71c-.562 1.38-.841 2.991-.841 4.83v5.94c0 1.84.29 3.45.87 4.83.58 1.38 1.37 2.52 2.37 3.42.999.9 2.17 1.571 3.51 2.01 1.34.441 2.79.66 4.35.66h4.08c1.56 0 3.009-.219 4.35-.66 1.34-.439 2.51-1.11 3.51-2.01 1-.9 1.79-2.04 2.37-3.42.579-1.38.87-2.99.87-4.83v-5.94c0-1.839-.28-3.45-.84-4.83-.56-1.38-1.33-2.529-2.31-3.45-.981-.919-2.159-1.62-3.539-2.1-1.381-.48-2.911-.72-4.591-.72h-3.72c-1.68 0-3.21.24-4.59.72s-2.56 1.181-3.54 2.1c-.98.921-1.75 2.07-2.309 3.45z" fill="#ffffff" sketch:type="MSShapeGroup"/><path d="M1226.641 660.664c-1.23 0-2.133.3-2.708.9-.575.6-.862 1.221-.862 1.86v18.54h-6.96c-1.361 0-2.511-.29-3.45-.87-.941-.579-1.411-1.63-1.411-3.15v-14.52c0-.72-.299-1.359-.899-1.92-.601-.56-1.5-.84-2.7-.84-1.24 0-2.151.3-2.731.9-.58.6-.87 1.221-.87 1.86v14.52c0 3.6 1.048 6.33 3.143 8.19 2.095 1.86 4.899 2.79 8.411 2.79h10.835c.759 0 1.377-.13 1.856-.39.479-.26.867-.58 1.167-.96.299-.379.508-.78.628-1.2.12-.42.181-.81.181-1.17v-21.72c0-.72-.318-1.369-.953-1.95-.635-.58-1.528-.87-2.677-.87" fill="#ffffff" sketch:type="MSShapeGroup"/><path d="M1254.649 677.644c0 1.4-.341 2.5-1.021 3.3-.68.801-1.839 1.2-3.479 1.2h-7.681v-14.34h7.741c1.639 0 2.79.39 3.45 1.17.66.78.99 1.811.99 3.09v5.58zm3.93-14.034c-1.02-.922-2.241-1.612-3.66-2.074-1.42-.461-2.951-.692-4.59-.692h-11.58c-.641 0-1.181.122-1.621.361-.44.24-.8.55-1.08.931s-.479.791-.599 1.232c-.12.44-.18.842-.18 1.202v34.37c0 .681.319 1.291.96 1.833.639.54 1.539.811 2.699.811 1.2 0 2.09-.27 2.67-.81.58-.54.87-1.151.87-1.83v-10.08h8.101c1.68 0 3.21-.23 4.59-.69 1.38-.462 2.559-1.164 3.54-2.105.979-.943 1.749-2.106 2.309-3.488.56-1.383.84-2.997.84-4.84v-5.953c0-1.804-.29-3.388-.869-4.751-.581-1.362-1.381-2.505-2.4-3.427z" fill="#ffffff" sketch:type="MSShapeGroup"/><path d="M1778.458 625.325l-27.666-39.511 34.766-14.401 27.665 39.511-34.765 14.401zm-1374.622-47.021l41.96 17.381 21.09 30.119-41.96-17.381-21.09-30.119zm682.527-298.526l683.754 283.204-224.078 92.822-459.654 190.407-683.74-283.229 683.718-283.204zm620.577 324.202l38.643-16.008 27.665 39.511-38.643 16.007-27.665-39.51zm-43.852 18.165l38.642-16.008 27.666 39.512-38.642 16.007-27.666-39.511zm-43.852 18.165l38.643-16.007 27.665 39.511-38.642 16.007-27.666-39.511zm-43.851 18.165l38.641-16.007 27.666 39.511-38.642 16.007-27.665-39.511zm-43.853 18.166l38.643-16.008 27.665 39.511-38.642 16.007-27.666-39.51zm-43.851 18.164l38.641-16.007 27.666 39.511-38.641 16.007-27.666-39.511zm-43.852 18.166l38.642-16.008 27.666 39.511-38.643 16.007-27.665-39.51zm-43.851 18.165l38.641-16.007 27.665 39.51-38.641 16.007-27.665-39.51zm-43.853 18.165l38.643-16.007 27.665 39.51-38.642 16.008-27.666-39.511zm-43.852 18.166l38.642-16.008 27.666 39.512-38.642 16.006-27.666-39.51zm-43.852 18.164l38.642-16.006 27.666 39.51-38.642 16.007-27.666-39.511zm-43.852 18.166l38.642-16.008 27.666 39.512-38.642 16.006-27.666-39.51zm-43.851 18.165l38.641-16.007 27.666 39.511-38.642 16.006-27.665-39.51zm-43.853 18.165l38.643-16.007 27.665 39.511-38.642 16.007-27.666-39.511zm-96.905 1.68l41.959 17.381 19.806 28.285 1.284 1.835-41.959-17.381-21.09-30.12zm-58.469-24.219l49.002 20.298 21.09 30.12-49.003-20.299-21.089-30.119zm-58.471-24.221l49.004 20.299 21.089 30.119-49.003-20.299-21.09-30.119zm-58.469-24.221l49.002 20.299 21.09 30.119-49.002-20.298-21.09-30.12zm-58.47-24.219l49.002 20.298 21.09 30.12-49.002-20.299-21.09-30.119zm-58.47-24.22l49.003 20.299 21.09 30.119-49.003-20.299-21.09-30.119zm-58.47-24.221l49.004 20.299 21.089 30.119-49.003-20.299-21.09-30.119zm-58.47-24.22l49.004 20.299 21.089 30.119-49.002-20.298-21.091-30.12zm-58.469-24.22l49.002 20.299 21.09 30.119-49.002-20.299-21.09-30.119zm-58.471-24.221l49.004 20.3 21.09 30.119-49.004-20.299-21.09-30.12zm-9.466-3.921l21.089 30.119-49.001-20.298-21.09-30.119 49.002 20.298zm620.291 276.293l-24.939-35.616-2.727-3.895 34.765-14.401 27.666 39.511-34.765 14.401zm704.783-286.14l-35.714-51.004-.166-.199c-.156-.206-.318-.406-.497-.594l-.305-.291c-.163-.152-.331-.296-.509-.431l-.364-.258c-.178-.118-.363-.225-.554-.327l-.403-.203-.191-.097-701.652-290.617c-1.678-.694-3.563-.695-5.242 0l-701.616 290.618-.052.027-.369.186c-.194.097-.389.19-.571.304l-.339.24c-.176.124-.352.25-.514.39l-.304.291c-.157.153-.308.308-.449.474l-.122.129-.143.212c-.127.17-.246.345-.356.526l-.221.39c-.094.179-.176.362-.254.55l-.163.421c-.065.19-.114.384-.162.58l-.099.439c-.034.195-.05.394-.067.594l-.034.46-.009.115.037.491.033.448c.032.228.086.45.14.673l.081.354c.101.338.226.666.376.981l.063.113c.141.28.297.552.475.81l.034.059 35.713 51.004c.748 1.067 1.785 1.9 2.989 2.399l701.638 290.643.128.045.279.1.454.138.273.068.502.091.24.035c.241.027.482.042.723.043l.025.002c.239 0 .479-.015.719-.041l.183-.027c.176-.023.35-.05.524-.088l.249-.061.438-.125.286-.102.219-.078 701.631-290.643c1.919-.795 3.373-2.418 3.954-4.412.581-1.994.226-4.144-.965-5.845z" fill="#ffffff" sketch:type="MSShapeGroup"/><mask sketch:name="Clip 86"><use xlink:href="#a"/></mask></g></svg>