<svg width="969" height="492" xmlns="http://www.w3.org/2000/svg" xmlns:sketch="http://www.bohemiancoding.com/sketch/ns"><title>Artboard 1</title><path d="M124.226 647.333l-26.123-37.308h901.817l3.616 5.162 22.507 32.146h-901.817zm-32.431-463.435h904.842v412.429h-904.843l.001-412.429zm940.556 448.56l-22.016-31.442v-402.245l22.016 31.443v402.244zm-23.255-459.338l-.054-.065c-.182-.253-.38-.493-.595-.719l-.083-.091c-.221-.224-.46-.43-.71-.622l-.163-.122c-.256-.185-.522-.355-.802-.504l-.079-.039c-.272-.14-.555-.26-.847-.362l-.118-.043c-.3-.1-.61-.179-.928-.237l-.171-.026c-.279-.043-.564-.071-.853-.08l-.146-.007-.061-.003h-918.54c-3.783 0-6.849 3.067-6.849 6.849l-.001 426.127.015.304.011.231c.022.276.056.55.11.82l.013.049c.053.254.124.504.206.75l.08.225c.077.21.165.414.263.615l.078.164c.128.248.273.487.432.719l.031.051 35.715 51.006c1.282 1.83 3.376 2.921 5.611 2.921h918.5400000000001l.079-.006c.307-.004.611-.025.909-.069l.298-.062c.23-.044.458-.091.681-.159l.092-.021.233-.095c.216-.077.429-.16.636-.258l.35-.181c.183-.101.361-.208.534-.326l.327-.229c.169-.128.328-.268.484-.411l.273-.253c.166-.171.319-.356.468-.544l.182-.223c.194-.268.373-.55.529-.849l.004-.009.061-.142c.128-.26.242-.524.334-.793l.091-.324c.064-.221.123-.44.163-.665l.051-.37c.028-.222.048-.442.054-.666l.016-.194v-426.127c0-1.406-.433-2.777-1.239-3.929l-35.715-51.006z" sketch:type="MSShapeGroup" transform="translate(-78 -170)" fill="#1A1918"/></svg>