<svg width="132px" height="169px" viewBox="0 0 132 169" version="1.1" xmlns="http://www.w3.org/2000/svg"
	 xmlns:xlink="http://www.w3.org/1999/xlink">
	<style>
		#body {
			-webkit-animation: bodymotion 2s ease-in-out alternate infinite;
			animation: bodymotion 2s ease-in-out alternate infinite;
		}

		@-webkit-keyframes bodymotion {
			to {
				-webkit-transform: translate(12px, 0px);
			}
			from {
				-webkit-transform: translate(12px, 6px);
			}
		}

		@keyframes bodymotion {
			to {
				transform: translate(12px, 0px);
			}
			from {
				transform: translate(12px, 6px);
			}
		}

		#head #bg {
			fill: #FFA930;
		}

		#head #shape {
			fill: #FB8814;
		}

		#head #lightshapecolor {
			fill: #FFBF66;
		}

		#rightleg,
		#leftleg,
		#middleleg {
			stroke-linecap: round;
			stroke-width: 10;
			stroke: #FFA930;
		}

		#rightleg {
			stroke-dasharray: 130;
			-webkit-animation: rightdash 2s ease-in-out alternate infinite;
			animation: rightdash 2s ease-in-out alternate infinite;
		}

		@-webkit-keyframes rightdash {
			to {
				stroke-dashoffset: 30;
				-webkit-transform: translateY(6px);
			}
			from {
				stroke-dashoffset: 0;
				-webkit-transform: translateY(0px);
			}
		}

		@keyframes rightdash {
			to {
				stroke-dashoffset: 30;
				transform: translateY(6px);
			}
			from {
				stroke-dashoffset: 0;
				transform: translateY(0px);
			}
		}

		#leftleg {
			stroke-dasharray: 100;
			-webkit-animation: leftdash 2s ease-in-out alternate infinite;
			animation: leftdash 2s ease-in-out alternate infinite;
		}

		@-webkit-keyframes leftdash {
			to {
				stroke-dashoffset: 40;
				-webkit-transform: translateY(6px);
			}
			from {
				stroke-dashoffset: 0;
				-webkit-transform: translateY(0px);
			}
		}

		@keyframes leftdash {
			to {
				stroke-dashoffset: 40;
				transform: translateY(6px);
			}
			from {
				stroke-dashoffset: 0;
				transform: translateY(0px);
			}
		}

		#middleleg {
			stroke-dasharray: 140;
			stroke-dashoffset: 20;
			-webkit-animation: middledash 2s ease-in-out alternate infinite;
			animation: middledash 2s ease-in-out alternate infinite;
		}

		@-webkit-keyframes middledash {
			to {
				stroke-dashoffset: 50;
				-webkit-transform: translateY(0px);
			}
			from {
				stroke-dashoffset: 0;
				-webkit-transform: translateY(-10px);
			}
		}

		@keyframes middledash {
			to {
				stroke-dashoffset: 50;
				transform: translateY(0px);
			}
			from {
				stroke-dashoffset: 0;
				transform: translateY(-10px);
			}
		}

		#mainbg {
			fill: #E5F2FC;
		}

		#bubble1, #bubble2, #bubble3, #bubble4, #bubble5, #bubble6, #bubble7 {
			-webkit-animation: bubblemotion 1.4s ease-in-out infinite;
			animation: bubblemotion 1.4s ease-in-out infinite;
			fill: #ABD4F1;
		}

		#bubble1, #bubble5 {
			-webkit-animation-delay: 0.5s;
			animation-delay: 0.5s;
		}

		#bubble2, #bubble7 {
			-webkit-animation-delay: 0.3s;
			animation-delay: 0.3s;
		}

		#bubble4 {
			-webkit-animation-delay: 0.2s;
			animation-delay: 0.2s;
		}

		@-webkit-keyframes bubblemotion {
			0% {
				opacity: 1;
				-webkit-transform: translateY(0px);
			}
			85% {
				opacity: 0;
				-webkit-transform: translateY(-6px);
			}
			100% {
				opacity: 0;
				-webkit-transform: translateY(0px);
			}
		}

		@keyframes bubblemotion {
			0% {
				opacity: 1;
				transform: translateY(0px);
			}
			85% {
				opacity: 0;
				transform: translateY(-6px);
			}
			100% {
				opacity: 0;
				transform: translateY(0px);
			}
		}

		#eyeoval {
			fill: #FFF;
		}

		#eyepoint {
			fill: #333;
		}

		#eyeoval, #eyepoint {
			-webkit-animation: eyemotion 4s ease-in-out infinite;
			animation: eyemotion 4s ease-in-out infinite;

			-webkit-transform-origin: 5.5px 5.5px;
			transform-origin: 5.5px 5.5px;
		}

		#eye2 #eyeoval, #eye2 #eyepoint {
			-webkit-animation-delay: 0.08s;
			animation-delay: 0.08s;
		}

		@-webkit-keyframes eyemotion {
			0%, 46% {
				-webkit-transform: scale(1, 1);
			}
			50% {
				-webkit-transform: scale(1, 0.2);
			}
			54%, 100% {
				-webkit-transform: scale(1, 1);
			}
		}

		@keyframes eyemotion {
			0%, 46% {
				transform: scale(1, 1);
			}
			50% {
				transform: scale(1, 0.2);
			}
			54%, 100% {
				transform: scale(1, 1);
			}
		}
	</style>
	<g id="octopus" stroke="none" stroke-width="1" fill="none" fill-rule="evenodd">
		<g id="bg" transform="translate(0.000000, 8.000000)">
			<ellipse id="mainbg" cx="66.0606061" cy="66" rx="65.9393939" ry="66"></ellipse>
			<path id="bubble7"
				  d="M114.828283,52.25 C118.998949,52.25 122.383838,55.638 122.383838,59.8125 C122.383838,63.987 118.998949,67.375 114.828283,67.375 C110.657616,67.375 107.272727,63.987 107.272727,59.8125 C107.272727,55.638 110.657616,52.25 114.828283,52.25 L114.828283,52.25 Z M114.828283,56.375 C116.72404,56.375 118.262626,57.915 118.262626,59.8125 C118.262626,61.71 116.72404,63.25 114.828283,63.25 C112.932525,63.25 111.393939,61.71 111.393939,59.8125 C111.393939,57.915 112.932525,56.375 114.828283,56.375 L114.828283,56.375 Z"></path>
			<path id="bubble6"
				  d="M114.141414,41.25 C114.141414,43.527 112.295111,45.375 110.020202,45.375 C107.745293,45.375 105.89899,43.527 105.89899,41.25 C105.89899,38.973 107.745293,37.125 110.020202,37.125 C112.295111,37.125 114.141414,38.973 114.141414,41.25 Z M111.393939,41.25 C111.393939,42.009 110.778505,42.625 110.020202,42.625 C109.261899,42.625 108.646465,42.009 108.646465,41.25 C108.646465,40.491 109.261899,39.875 110.020202,39.875 C110.778505,39.875 111.393939,40.491 111.393939,41.25 Z"></path>
			<ellipse id="bubble5" cx="125.131313" cy="31.625" rx="2.74747475" ry="2.75"></ellipse>
			<ellipse id="bubble4" cx="11.1111111" cy="71.5" rx="2.74747475" ry="2.75"></ellipse>
			<path id="bubble3"
				  d="M10.5454545,44.75 C14.7161212,44.75 18.1010101,48.138 18.1010101,52.3125 C18.1010101,56.487 14.7161212,59.875 10.5454545,59.875 C6.37478788,59.875 2.98989899,56.487 2.98989899,52.3125 C2.98989899,48.138 6.37478788,44.75 10.5454545,44.75 L10.5454545,44.75 Z M10.5454545,48.875 C12.4412121,48.875 13.979798,50.415 13.979798,52.3125 C13.979798,54.21 12.4412121,55.75 10.5454545,55.75 C8.64969697,55.75 7.11111111,54.21 7.11111111,52.3125 C7.11111111,50.415 8.64969697,48.875 10.5454545,48.875 L10.5454545,48.875 Z"></path>
			<path id="bubble2"
				  d="M22.979798,31.625 C26.0130101,31.625 28.4747475,34.089 28.4747475,37.125 C28.4747475,40.161 26.0130101,42.625 22.979798,42.625 C19.9465859,42.625 17.4848485,40.161 17.4848485,37.125 C17.4848485,34.089 19.9465859,31.625 22.979798,31.625 L22.979798,31.625 Z M22.979798,34.71875 C24.3068283,34.71875 25.3838384,35.79675 25.3838384,37.125 C25.3838384,38.45325 24.3068283,39.53125 22.979798,39.53125 C21.6527677,39.53125 20.5757576,38.45325 20.5757576,37.125 C20.5757576,35.79675 21.6527677,34.71875 22.979798,34.71875 L22.979798,34.71875 Z"></path>
			<ellipse id="bubble1" cx="6.98989899" cy="27.5" rx="2.74747475" ry="2.75"></ellipse>
		</g>
		<g id="body">
			<path id="middleleg"
				  d="M53,78.8852539 L53,154.418142 C53,159.387531 48.9716556,163.416016 44,163.416016 C39.0294373,163.416016 35,159.383585 35,154.418142 L35.1025391,145.990234 C35.1025391,141.021798 39.1349697,136.992361 44.1004123,136.992361 L60.1046658,136.992361"></path>
			<path id="rightleg"
				  d="M69,62.6546304 L69,80 L69,122 C69,127.5 73.5,132 79,132 C84.5,132 89,127.5 89,122 L89,100 C89,94.5 93.5,90 99,90 L106,90"></path>
			<path id="leftleg"
				  d="M37,80 L37,112.012202 C37,117.528311 32.5240618,122 27,122 C21.4771525,122 17,117.529137 17,112.012202 L17,106.995933 C17,101.475938 12.5285127,97 7.01265364,97 L0,97"></path>
			<g id="head" transform="translate(18.484848, 0.000000)">
				<path id="bg"
					  d="M1.91515152,33.1267606 C1.91515152,14.8435493 16.9707515,0 35.5151515,0 C54.0595515,0 67.1151515,14.8435493 67.1151515,33.1267606 C67.1151515,39.5602535 65.2517515,45.5672394 62.0275515,50.6508169 C59.9681515,54.1870986 56.6963515,55.7337183 56.6963515,59.0726197 C56.6963515,62.5840563 60.1151515,62.4929577 60.1151515,62.4929577 C64.8611515,63.2617746 68.5151515,67.2908169 68.5151515,72.1549296 C68.5151515,77.4869577 64.1233515,82.8169014 58.7151515,82.8169014 L55.5151515,83 L55.5151515,98 L45.5151515,98 L45.5151515,97 C45.7151515,95.0958873 44.6029878,94.1384277 43.0573878,94.1384277 C41.5117878,94.1384277 39.5754542,94.878418 39.5151515,97 L39.5151515,98 L29.5151515,98 L29.5185695,92.3874512 C29.5608058,90.791748 28.6068941,89.9443359 27.0612941,89.9443359 C25.5156941,89.9443359 23.4719386,90.8636202 23.4719386,92.3874512 L23.5151515,98 L13.5151515,98 L13.5932765,83.2294922 L10.3151515,82.8169014 C4.90695152,82.8169014 0.515151515,77.4869577 0.515151515,72.1549296 C0.515151515,67.2908169 4.16915152,63.2617746 8.91515152,62.5909577 C8.91515152,62.4929577 12.3339515,62.5840563 12.3339515,59.0726197 C12.3339515,55.7337183 9.06215152,54.1870986 7.00275152,50.6508169 C3.77855152,45.5672394 1.91515152,39.5602535 1.91515152,33.1267606 Z"></path>
				<path id="shape"
					  d="M55.5151515,83 L52.5151515,83 C49.7958788,83 47.5151515,85.24 47.5151515,88 C47.5151515,90.76 49.7958788,93 52.5151515,93 L55.5151515,93 L55.5151515,83 Z"></path>
				<path id="shape"
					  d="M21.5151515,83 L18.5151515,83 C15.7958788,83 13.5151515,85.016 13.5151515,87.5 C13.5151515,89.984 15.7958788,92 18.5151515,92 L21.5151515,92 L21.5151515,83 Z"
					  transform="translate(17.515152, 87.500000) rotate(-180.000000) translate(-17.515152, -87.500000) "></path>
				<path id="shape"
					  d="M40.0158839,68.6871861 C40.0158839,70.6586147 38.4259207,72 36.5151515,72 C34.6043823,72 33.092807,70.6586147 33.092807,68.6871861 L33.092807,67.9729004 L30.3235762,67.9729004 C28.7949609,67.9729004 27.5151515,66.4342857 27.5151515,64.8571429 C27.5151515,63.28 28.7557669,62 30.2843823,62 L42.7459207,62 C44.2745361,62 45.5151515,63.28 45.5151515,64.8571429 C45.5151515,66.4342857 44.3137301,67.9729004 42.7851147,67.9729004 L40.0158839,67.9729004 L40.0158839,68.6871861 Z M51.5151515,40 C52.6191515,40 53.5151515,40.896 53.5151515,42 C53.5151515,43.104 52.6191515,44 51.5151515,44 C50.4111515,44 49.5151515,43.104 49.5151515,42 C49.5151515,40.896 50.4111515,40 51.5151515,40 L51.5151515,40 Z M57.9651515,30 C59.8695515,30 61.4151515,31.5616901 61.4151515,33.4859155 C61.4151515,35.4101408 59.8695515,36.971831 57.9651515,36.971831 C56.0607515,36.971831 54.5151515,35.4101408 54.5151515,33.4859155 C54.5151515,31.5616901 56.0607515,30 57.9651515,30 L57.9651515,30 Z M22.5151515,28 C24.1711515,28 25.5151515,29.344 25.5151515,31 C25.5151515,32.656 24.1711515,34 22.5151515,34 C20.8591515,34 19.5151515,32.656 19.5151515,31 C19.5151515,29.344 20.8591515,28 22.5151515,28 L22.5151515,28 Z M52.0151515,15 C55.0511515,15 57.5151515,17.464 57.5151515,20.5 C57.5151515,23.536 55.0511515,26 52.0151515,26 C48.9791515,26 46.5151515,23.536 46.5151515,20.5 C46.5151515,17.464 48.9791515,15 52.0151515,15 L52.0151515,15 Z M46.0151515,8 C46.8431515,8 47.5151515,8.672 47.5151515,9.5 C47.5151515,10.328 46.8431515,11 46.0151515,11 C45.1871515,11 44.5151515,10.328 44.5151515,9.5 C44.5151515,8.672 45.1871515,8 46.0151515,8 L46.0151515,8 Z M34.5151515,5 C35.6191515,5 36.5151515,5.896 36.5151515,7 C36.5151515,8.104 35.6191515,9 34.5151515,9 C33.4111515,9 32.5151515,8.104 32.5151515,7 C32.5151515,5.896 33.4111515,5 34.5151515,5 L34.5151515,5 Z"></path>
				<path id="lightshape"
					  d="M25.4585302,7.00080771 C25.6538464,7.00756026 25.8477774,7.02241588 26.0417084,7.05347762 C26.4281853,7.11560111 26.8035803,7.23174502 27.1568118,7.39650731 C27.5986974,7.60313543 28.0017969,7.88539214 28.3425614,8.22707132 C28.6140648,8.50122497 28.846782,8.8118424 29.0310165,9.14811953 C29.5629416,10.1231882 29.6612923,11.2913798 29.3025199,12.3380255 C29.17785,12.6986119 29.0005416,13.0429921 28.7789062,13.3563105 C28.5281811,13.7101443 28.2192767,14.0234627 27.8688156,14.2814103 C27.7122856,14.3975542 27.5474442,14.497492 27.377062,14.5933782 C27.1748197,14.698718 26.9698069,14.7986558 26.7675645,14.9026451 C25.8685558,15.3780249 25.0055627,15.910126 24.1896673,16.5124537 C22.1713995,18.0020669 20.4578805,19.8765756 19.1696244,22.0009288 C18.7374353,22.7126478 18.353729,23.4527276 18.022661,24.2144156 C17.8439674,24.6222698 17.6915931,25.0382271 17.5309074,25.4514833 L17.4741133,25.5838333 C17.391,25.7580492 17.303731,25.926863 17.1998394,26.0889243 C16.9685074,26.4535621 16.6762257,26.7817362 16.3382316,27.0572404 C16.0002376,27.3327445 15.6179164,27.5555788 15.2092761,27.714939 C14.157893,28.1227932 12.9569059,28.0917315 11.9290715,27.6298569 C11.5730696,27.4691461 11.2420016,27.2611675 10.9469495,27.0099725 C10.5770953,26.6980046 10.2654205,26.3212121 10.0299328,25.9039043 C9.76951115,25.4433802 9.60328457,24.9355882 9.54233482,24.4142912 C9.49800773,24.0347977 9.50770428,23.6499022 9.57280969,23.2744602 C9.60605501,23.0853887 9.65592299,22.9017193 9.71133185,22.7194004 C9.80275647,22.4560508 9.90249242,22.1954023 10.0036136,21.9347537 C10.787649,19.9454516 11.8099425,18.0358297 13.0580271,16.285568 C13.695229,15.39153 14.3822988,14.5353062 15.1192367,13.7168968 C16.1747755,12.5433031 17.3466729,11.4709977 18.5933723,10.4918776 C19.7264835,9.60189109 20.9385523,8.81454342 22.1991039,8.10687588 C22.6174408,7.87188703 23.0454743,7.65445483 23.4762782,7.43972365 L23.6078742,7.37760016 C23.8322801,7.2803634 24.0594564,7.19528123 24.2963293,7.13450826 C24.581685,7.06023017 24.8711963,7.02241588 25.1648632,7.00350873 C25.3116967,6.9994572 25.3116967,6.9994572 25.4585302,7.00080771 L25.4585302,7.00080771 Z"></path>
				<path id="lightshape"
					  d="M14.8882931,40 C15.220329,40.0085929 15.5494902,40.0472607 15.8729018,40.1288929 C16.7166469,40.3379858 17.4870853,40.8062966 18.0620393,41.4550575 C18.1971535,41.6082968 18.3207686,41.770129 18.4328846,41.940554 C18.5191277,42.070879 18.5953092,42.2055005 18.6743653,42.3401219 C18.7692327,42.500522 18.7979804,42.5463506 18.8957226,42.7053185 C19.0092761,42.8872006 19.1257042,43.0676507 19.2435698,43.2466686 C19.5224225,43.6605579 19.8127743,44.0672866 20.1203747,44.4625581 C20.30436,44.6974296 20.4998444,44.9222761 20.6780801,45.1600119 C20.7384503,45.2430762 20.7959457,45.3261405 20.8505663,45.4120691 C21.1466677,45.8889727 21.3550885,46.4131371 21.4513933,46.9673765 C21.5218252,47.3683766 21.5333242,47.7794017 21.4887653,48.1832661 C21.3737745,49.1986556 20.8893757,50.1553272 20.1390607,50.8499167 C19.8400846,51.1277525 19.5022991,51.3611918 19.1372033,51.5445061 C18.703113,51.7607597 18.2330881,51.9039741 17.7530015,51.9655562 C17.221169,52.0328669 16.6778375,52.0013598 16.1575041,51.8724669 C15.4388115,51.6920169 14.7704275,51.3268204 14.2328455,50.8184095 C14.0373611,50.6336631 13.8677497,50.4274344 13.6967008,50.2197737 C13.563024,50.0565094 13.4307846,49.8903808 13.3014199,49.72282 C12.8673297,49.1599877 12.4447384,48.5856983 12.0523323,47.9913589 C11.7763544,47.5703088 11.5090008,47.1449623 11.2502714,46.7138872 C11.0950339,46.4532371 10.9455458,46.1911549 10.830555,45.9104549 C10.6781922,45.5338012 10.5790126,45.1356654 10.5373285,44.7303689 C10.4956443,44.3265045 10.5128929,43.9154794 10.5876369,43.5159115 C10.7083773,42.8642863 10.9814804,42.2456005 11.3796361,41.7157075 C11.7777918,41.1872467 12.2995625,40.7533073 12.8932026,40.4568537 C13.3977247,40.2047965 13.9453685,40.0587179 14.5059486,40.0114571 C14.6338759,40.0042964 14.7603658,40 14.8882931,40 L14.8882931,40 Z"></path>
				<g id="eye1" transform="translate(5.000000, 67.000000)">
					<circle id="eyeoval" cx="6" cy="5.5" r="5.5"></circle>
					<path id="eyepoint"
						  d="M3.51515152,5.5 C3.51515152,4.672 4.07515152,4 4.76515152,4 L7.26515152,4 C7.95515152,4 8.51515152,4.672 8.51515152,5.5 C8.51515152,6.328 7.95515152,7 7.26515152,7 L4.76515152,7 C4.07515152,7 3.51515152,6.328 3.51515152,5.5 L3.51515152,5.5 Z"></path>
				</g>
				<g id="eye2" transform="translate(53.000000, 67.000000)">
					<circle id="eyeoval" cx="6.01515152" cy="5.5" r="5.5"></circle>
					<path id="eyepoint"
						  d="M3.51515152,5.5 C3.51515152,4.672 4.07515152,4 4.76515152,4 L7.26515152,4 C7.95515152,4 8.51515152,4.672 8.51515152,5.5 C8.51515152,6.328 7.95515152,7 7.26515152,7 L4.76515152,7 C4.07515152,7 3.51515152,6.328 3.51515152,5.5 L3.51515152,5.5 Z"></path>
				</g>
			</g>
		</g>
	</g>
</svg>
